<mxGraphModel dx="2047" dy="1214" grid="1" gridSize="10" guides="1" tooltips="1" connect="1" arrows="1" fold="1" page="1" pageScale="1" pageWidth="827" pageHeight="1169" math="0" shadow="0"><root><mxCell id="0"/><mxCell id="1" parent="0"/><mxCell id="_6urEukZrEpD_mtBns1U-6" style="edgeStyle=orthogonalEdgeStyle;rounded=0;orthogonalLoop=1;jettySize=auto;html=1;exitX=0.5;exitY=1;exitDx=0;exitDy=0;endArrow=none;endFill=0;" parent="1" source="BxXD21n9Cmen00NVLytO-20" target="BxXD21n9Cmen00NVLytO-23" edge="1"><mxGeometry relative="1" as="geometry"/></mxCell><mxCell id="_6urEukZrEpD_mtBns1U-7" style="edgeStyle=orthogonalEdgeStyle;rounded=0;orthogonalLoop=1;jettySize=auto;html=1;exitX=0.5;exitY=1;exitDx=0;exitDy=0;entryX=0.5;entryY=0;entryDx=0;entryDy=0;endArrow=none;endFill=0;" parent="1" source="BxXD21n9Cmen00NVLytO-20" target="BxXD21n9Cmen00NVLytO-27" edge="1"><mxGeometry relative="1" as="geometry"/></mxCell><mxCell id="_6urEukZrEpD_mtBns1U-8" style="edgeStyle=orthogonalEdgeStyle;shape=connector;rounded=0;orthogonalLoop=1;jettySize=auto;html=1;exitX=0.5;exitY=1;exitDx=0;exitDy=0;entryX=0.5;entryY=0;entryDx=0;entryDy=0;labelBackgroundColor=default;strokeColor=default;fontFamily=Helvetica;fontSize=11;fontColor=default;endArrow=none;endFill=0;" parent="1" source="BxXD21n9Cmen00NVLytO-20" target="BxXD21n9Cmen00NVLytO-30" edge="1"><mxGeometry relative="1" as="geometry"/></mxCell><mxCell id="_6urEukZrEpD_mtBns1U-9" style="edgeStyle=orthogonalEdgeStyle;shape=connector;rounded=0;orthogonalLoop=1;jettySize=auto;html=1;exitX=0.5;exitY=1;exitDx=0;exitDy=0;entryX=0.5;entryY=0;entryDx=0;entryDy=0;labelBackgroundColor=default;strokeColor=default;fontFamily=Helvetica;fontSize=11;fontColor=default;endArrow=none;endFill=0;" parent="1" source="BxXD21n9Cmen00NVLytO-20" target="BxXD21n9Cmen00NVLytO-33" edge="1"><mxGeometry relative="1" as="geometry"/></mxCell><mxCell id="_6urEukZrEpD_mtBns1U-10" style="edgeStyle=orthogonalEdgeStyle;shape=connector;rounded=0;orthogonalLoop=1;jettySize=auto;html=1;exitX=0.5;exitY=1;exitDx=0;exitDy=0;labelBackgroundColor=default;strokeColor=default;fontFamily=Helvetica;fontSize=11;fontColor=default;endArrow=none;endFill=0;" parent="1" source="BxXD21n9Cmen00NVLytO-20" target="_6urEukZrEpD_mtBns1U-1" edge="1"><mxGeometry relative="1" as="geometry"/></mxCell><mxCell id="BxXD21n9Cmen00NVLytO-20" value="А1. Прибытие в Каранос" style="rounded=0;whiteSpace=wrap;html=1;fillColor=#d5e8d4;strokeColor=#82b366;" parent="1" vertex="1"><mxGeometry x="400" y="220" width="120" height="60" as="geometry"/></mxCell><mxCell id="BxXD21n9Cmen00NVLytO-21" value="Х1. Возвращение Аззалина" style="rounded=0;whiteSpace=wrap;html=1;" parent="1" vertex="1"><mxGeometry x="379" y="900" width="120" height="60" as="geometry"/></mxCell><mxCell id="BxXD21n9Cmen00NVLytO-23" value="В1. Инструменты торговли" style="swimlane;fontStyle=0;childLayout=stackLayout;horizontal=1;startSize=30;horizontalStack=0;resizeParent=1;resizeParentMax=0;resizeLast=0;collapsible=1;marginBottom=0;whiteSpace=wrap;html=1;fillColor=#fff2cc;strokeColor=#d6b656;" parent="1" vertex="1"><mxGeometry x="-25" y="350" width="170" height="160" as="geometry"/></mxCell><mxCell id="BxXD21n9Cmen00NVLytO-24" value="Требуется: А1, сбор слухов 15" style="text;strokeColor=#9673a6;fillColor=#e1d5e7;align=left;verticalAlign=middle;spacingLeft=4;spacingRight=4;overflow=hidden;points=[[0,0.5],[1,0.5]];portConstraint=eastwest;rotatable=0;whiteSpace=wrap;html=1;" parent="BxXD21n9Cmen00NVLytO-23" vertex="1"><mxGeometry y="30" width="170" height="30" as="geometry"/></mxCell><mxCell id="BxXD21n9Cmen00NVLytO-25" value="По слухам, в самом сердце &lt;i style=&quot;font-weight: bold;&quot;&gt;Теней&lt;/i&gt;&amp;nbsp;живёт человек, который способен достать &lt;u style=&quot;font-weight: bold;&quot;&gt;ВСЁ&lt;/u&gt;&amp;nbsp;что пожелаешь" style="text;strokeColor=none;fillColor=none;align=left;verticalAlign=middle;spacingLeft=4;spacingRight=4;overflow=hidden;points=[[0,0.5],[1,0.5]];portConstraint=eastwest;rotatable=0;whiteSpace=wrap;html=1;" parent="BxXD21n9Cmen00NVLytO-23" vertex="1"><mxGeometry y="60" width="170" height="100" as="geometry"/></mxCell><mxCell id="BxXD21n9Cmen00NVLytO-27" value="В2. Мечи и Пиво" style="swimlane;fontStyle=0;childLayout=stackLayout;horizontal=1;startSize=30;horizontalStack=0;resizeParent=1;resizeParentMax=0;resizeLast=0;collapsible=1;marginBottom=0;whiteSpace=wrap;html=1;fillColor=#fff2cc;strokeColor=#d6b656;" parent="1" vertex="1"><mxGeometry x="179" y="350" width="170" height="180" as="geometry"/></mxCell><mxCell id="BxXD21n9Cmen00NVLytO-28" value="Требуется: А1, сбор слухов 15" style="text;strokeColor=#9673a6;fillColor=#e1d5e7;align=left;verticalAlign=middle;spacingLeft=4;spacingRight=4;overflow=hidden;points=[[0,0.5],[1,0.5]];portConstraint=eastwest;rotatable=0;whiteSpace=wrap;html=1;" parent="BxXD21n9Cmen00NVLytO-27" vertex="1"><mxGeometry y="30" width="170" height="30" as="geometry"/></mxCell><mxCell id="BxXD21n9Cmen00NVLytO-29" value="Когда вы приближаетесь к лавке искуссного кузнеца - из неё доносятся крики и вы замечаете банду &lt;u style=&quot;font-weight: bold;&quot;&gt;Железных Кирок&lt;/u&gt;, которые грабят лавку кузнеца, однако самого кузнеца не видели уже несколько дней" style="text;strokeColor=none;fillColor=none;align=left;verticalAlign=middle;spacingLeft=4;spacingRight=4;overflow=hidden;points=[[0,0.5],[1,0.5]];portConstraint=eastwest;rotatable=0;whiteSpace=wrap;html=1;" parent="BxXD21n9Cmen00NVLytO-27" vertex="1"><mxGeometry y="60" width="170" height="120" as="geometry"/></mxCell><mxCell id="BxXD21n9Cmen00NVLytO-30" value="В3. Большой Брат" style="swimlane;fontStyle=0;childLayout=stackLayout;horizontal=1;startSize=30;horizontalStack=0;resizeParent=1;resizeParentMax=0;resizeLast=0;collapsible=1;marginBottom=0;whiteSpace=wrap;html=1;fillColor=#d5e8d4;strokeColor=#82b366;" parent="1" vertex="1"><mxGeometry x="379" y="350" width="170" height="180" as="geometry"/></mxCell><mxCell id="BxXD21n9Cmen00NVLytO-31" value="Требуется: А1" style="text;strokeColor=#9673a6;fillColor=#e1d5e7;align=left;verticalAlign=middle;spacingLeft=4;spacingRight=4;overflow=hidden;points=[[0,0.5],[1,0.5]];portConstraint=eastwest;rotatable=0;whiteSpace=wrap;html=1;" parent="BxXD21n9Cmen00NVLytO-30" vertex="1"><mxGeometry y="30" width="170" height="30" as="geometry"/></mxCell><mxCell id="BxXD21n9Cmen00NVLytO-32" value="По прошествии нескольких дней, вы обнаруживаете на себе пару лишних глазов. Несколько серых дварфов пристально следят за вами. Это &lt;b&gt;Форак-Эрач-Нод &lt;/b&gt;положи на вас свой глаз. Но зачем ?" style="text;strokeColor=none;fillColor=none;align=left;verticalAlign=middle;spacingLeft=4;spacingRight=4;overflow=hidden;points=[[0,0.5],[1,0.5]];portConstraint=eastwest;rotatable=0;whiteSpace=wrap;html=1;" parent="BxXD21n9Cmen00NVLytO-30" vertex="1"><mxGeometry y="60" width="170" height="120" as="geometry"/></mxCell><mxCell id="BxXD21n9Cmen00NVLytO-33" value="В4. Время сопротивления" style="swimlane;fontStyle=0;childLayout=stackLayout;horizontal=1;startSize=30;horizontalStack=0;resizeParent=1;resizeParentMax=0;resizeLast=0;collapsible=1;marginBottom=0;whiteSpace=wrap;html=1;fillColor=#d5e8d4;strokeColor=#82b366;" parent="1" vertex="1"><mxGeometry x="575" y="350" width="170" height="250" as="geometry"/></mxCell><mxCell id="BxXD21n9Cmen00NVLytO-34" value="Требуется: А1, несколько дней в городе" style="text;strokeColor=#9673a6;fillColor=#e1d5e7;align=left;verticalAlign=middle;spacingLeft=4;spacingRight=4;overflow=hidden;points=[[0,0.5],[1,0.5]];portConstraint=eastwest;rotatable=0;whiteSpace=wrap;html=1;" parent="BxXD21n9Cmen00NVLytO-33" vertex="1"><mxGeometry y="30" width="170" height="30" as="geometry"/></mxCell><mxCell id="_6urEukZrEpD_mtBns1U-4" value="Блокирует : В5" style="text;strokeColor=#b85450;fillColor=#f8cecc;align=left;verticalAlign=middle;spacingLeft=4;spacingRight=4;overflow=hidden;points=[[0,0.5],[1,0.5]];portConstraint=eastwest;rotatable=0;whiteSpace=wrap;html=1;" parent="BxXD21n9Cmen00NVLytO-33" vertex="1"><mxGeometry y="60" width="170" height="30" as="geometry"/></mxCell><mxCell id="BxXD21n9Cmen00NVLytO-35" value="Побыв в городе несколько дней, вы поняли, что политическая обстванока тут неспокойная. Организованная группа &lt;i style=&quot;font-weight: bold;&quot;&gt;&quot;Железные кирки&quot;&lt;/i&gt;&amp;nbsp;выступают против развития и вы решаете к ним присоединиться." style="text;strokeColor=none;fillColor=none;align=left;verticalAlign=middle;spacingLeft=4;spacingRight=4;overflow=hidden;points=[[0,0.5],[1,0.5]];portConstraint=eastwest;rotatable=0;whiteSpace=wrap;html=1;" parent="BxXD21n9Cmen00NVLytO-33" vertex="1"><mxGeometry y="90" width="170" height="160" as="geometry"/></mxCell><mxCell id="_6urEukZrEpD_mtBns1U-1" value="В5. На страже заокна" style="swimlane;fontStyle=0;childLayout=stackLayout;horizontal=1;startSize=30;horizontalStack=0;resizeParent=1;resizeParentMax=0;resizeLast=0;collapsible=1;marginBottom=0;whiteSpace=wrap;html=1;fillColor=#d5e8d4;strokeColor=#82b366;" parent="1" vertex="1"><mxGeometry x="775" y="350" width="170" height="250" as="geometry"/></mxCell><mxCell id="_6urEukZrEpD_mtBns1U-2" value="Требуется: А1, несколько дней в городе" style="text;strokeColor=#9673a6;fillColor=#e1d5e7;align=left;verticalAlign=middle;spacingLeft=4;spacingRight=4;overflow=hidden;points=[[0,0.5],[1,0.5]];portConstraint=eastwest;rotatable=0;whiteSpace=wrap;html=1;" parent="_6urEukZrEpD_mtBns1U-1" vertex="1"><mxGeometry y="30" width="170" height="30" as="geometry"/></mxCell><mxCell id="_6urEukZrEpD_mtBns1U-5" value="Блокирует : В4" style="text;strokeColor=#b85450;fillColor=#f8cecc;align=left;verticalAlign=middle;spacingLeft=4;spacingRight=4;overflow=hidden;points=[[0,0.5],[1,0.5]];portConstraint=eastwest;rotatable=0;whiteSpace=wrap;html=1;" parent="_6urEukZrEpD_mtBns1U-1" vertex="1"><mxGeometry y="60" width="170" height="30" as="geometry"/></mxCell><mxCell id="_6urEukZrEpD_mtBns1U-3" value="Побыв в городе несколько дней, вы поняли, что политическая обстванока тут неспокойная. Организованная группа&amp;nbsp;&lt;i style=&quot;border-color: var(--border-color); font-weight: bold;&quot;&gt;&quot;Железные кирки&quot;&lt;/i&gt;&amp;nbsp;выступают против развития и вы решаете к начать борьбу с ними." style="text;strokeColor=none;fillColor=none;align=left;verticalAlign=middle;spacingLeft=4;spacingRight=4;overflow=hidden;points=[[0,0.5],[1,0.5]];portConstraint=eastwest;rotatable=0;whiteSpace=wrap;html=1;" parent="_6urEukZrEpD_mtBns1U-1" vertex="1"><mxGeometry y="90" width="170" height="160" as="geometry"/></mxCell></root></mxGraphModel>